<svg width="21" height="16" viewBox="0 0 21 16" fill="none" xmlns="http://www.w3.org/2000/svg">
<path d="M12.5016 2.60315L6.10641 0.13699C5.55844 -0.0721776 4.95141 -0.0418145 4.42969 0.228079L2.92359 1.00065C2.55937 1.18958 2.53312 1.7125 2.87437 1.93853L7.69453 5.12665L4.4625 6.82361L2.55281 5.94983C2.26734 5.81826 1.93594 5.825 1.65703 5.97007L0.600469 6.51323C0.295312 6.67179 0.213281 7.08001 0.436406 7.34653L2.835 10.2243C3.03516 10.4638 3.32719 10.6021 3.63234 10.6021H8.15062C8.31469 10.6021 8.47547 10.5616 8.61984 10.4874L17.5744 5.88573C19.1002 5.09966 20.2814 3.75019 20.8819 2.10721C21.1936 1.25705 20.58 0.346158 19.6941 0.346158H17.8106C17.1478 0.346158 16.4916 0.508094 15.9009 0.818472L12.5016 2.60315ZM0 14.9204C0 15.5176 0.469219 16 1.05 16H19.95C20.5308 16 21 15.5176 21 14.9204C21 14.3233 20.5308 13.8408 19.95 13.8408H1.05C0.469219 13.8408 0 14.3233 0 14.9204Z" fill="white"/>
</svg>
