<svg width="21" height="16" viewBox="0 0 21 16" fill="none" xmlns="http://www.w3.org/2000/svg">
<path d="M0 2.28571C0 1.025 1.04635 0 2.33333 0H18.6667C19.9536 0 21 1.025 21 2.28571V13.7143C21 14.975 19.9536 16 18.6667 16H2.33333C1.04635 16 0 14.975 0 13.7143V2.28571ZM4.66667 9.14286C4.97609 9.14286 5.27283 9.02245 5.49162 8.80812C5.71042 8.59379 5.83333 8.30311 5.83333 8C5.83333 7.6969 5.71042 7.40621 5.49162 7.19188C5.27283 6.97755 4.97609 6.85714 4.66667 6.85714C4.35725 6.85714 4.0605 6.97755 3.84171 7.19188C3.62292 7.40621 3.5 7.6969 3.5 8C3.5 8.30311 3.62292 8.59379 3.84171 8.80812C4.0605 9.02245 4.35725 9.14286 4.66667 9.14286ZM5.83333 4.57143C5.83333 4.26832 5.71042 3.97763 5.49162 3.76331C5.27283 3.54898 4.97609 3.42857 4.66667 3.42857C4.35725 3.42857 4.0605 3.54898 3.84171 3.76331C3.62292 3.97763 3.5 4.26832 3.5 4.57143C3.5 4.87453 3.62292 5.16522 3.84171 5.37955C4.0605 5.59388 4.35725 5.71429 4.66667 5.71429C4.97609 5.71429 5.27283 5.59388 5.49162 5.37955C5.71042 5.16522 5.83333 4.87453 5.83333 4.57143ZM4.66667 12.5714C4.97609 12.5714 5.27283 12.451 5.49162 12.2367C5.71042 12.0224 5.83333 11.7317 5.83333 11.4286C5.83333 11.1255 5.71042 10.8348 5.49162 10.6205C5.27283 10.4061 4.97609 10.2857 4.66667 10.2857C4.35725 10.2857 4.0605 10.4061 3.84171 10.6205C3.62292 10.8348 3.5 11.1255 3.5 11.4286C3.5 11.7317 3.62292 12.0224 3.84171 12.2367C4.0605 12.451 4.35725 12.5714 4.66667 12.5714ZM8.16667 3.71429C7.68177 3.71429 7.29167 4.09643 7.29167 4.57143C7.29167 5.04643 7.68177 5.42857 8.16667 5.42857H16.3333C16.8182 5.42857 17.2083 5.04643 17.2083 4.57143C17.2083 4.09643 16.8182 3.71429 16.3333 3.71429H8.16667ZM8.16667 7.14286C7.68177 7.14286 7.29167 7.525 7.29167 8C7.29167 8.475 7.68177 8.85714 8.16667 8.85714H16.3333C16.8182 8.85714 17.2083 8.475 17.2083 8C17.2083 7.525 16.8182 7.14286 16.3333 7.14286H8.16667ZM8.16667 10.5714C7.68177 10.5714 7.29167 10.9536 7.29167 11.4286C7.29167 11.9036 7.68177 12.2857 8.16667 12.2857H16.3333C16.8182 12.2857 17.2083 11.9036 17.2083 11.4286C17.2083 10.9536 16.8182 10.5714 16.3333 10.5714H8.16667Z" fill="white"/>
</svg>
