<svg width="13" height="15" viewBox="0 0 13 15" fill="none" xmlns="http://www.w3.org/2000/svg">
<path d="M3.71429 0C4.2279 0 4.64286 0.418945 4.64286 0.9375V1.875H8.35714V0.9375C8.35714 0.418945 8.7721 0 9.28571 0C9.79933 0 10.2143 0.418945 10.2143 0.9375V1.875H11.6071C12.3761 1.875 13 2.50488 13 3.28125V4.6875H0V3.28125C0 2.50488 0.623884 1.875 1.39286 1.875H2.78571V0.9375C2.78571 0.418945 3.20067 0 3.71429 0ZM0 5.625H13V13.5938C13 14.3701 12.3761 15 11.6071 15H1.39286C0.623884 15 0 14.3701 0 13.5938V5.625ZM1.85714 7.96875V8.90625C1.85714 9.16406 2.06607 9.375 2.32143 9.375H3.25C3.50536 9.375 3.71429 9.16406 3.71429 8.90625V7.96875C3.71429 7.71094 3.50536 7.5 3.25 7.5H2.32143C2.06607 7.5 1.85714 7.71094 1.85714 7.96875ZM5.57143 7.96875V8.90625C5.57143 9.16406 5.78036 9.375 6.03571 9.375H6.96429C7.21964 9.375 7.42857 9.16406 7.42857 8.90625V7.96875C7.42857 7.71094 7.21964 7.5 6.96429 7.5H6.03571C5.78036 7.5 5.57143 7.71094 5.57143 7.96875ZM9.75 7.5C9.49464 7.5 9.28571 7.71094 9.28571 7.96875V8.90625C9.28571 9.16406 9.49464 9.375 9.75 9.375H10.6786C10.9339 9.375 11.1429 9.16406 11.1429 8.90625V7.96875C11.1429 7.71094 10.9339 7.5 10.6786 7.5H9.75ZM1.85714 11.7188V12.6562C1.85714 12.9141 2.06607 13.125 2.32143 13.125H3.25C3.50536 13.125 3.71429 12.9141 3.71429 12.6562V11.7188C3.71429 11.4609 3.50536 11.25 3.25 11.25H2.32143C2.06607 11.25 1.85714 11.4609 1.85714 11.7188ZM6.03571 11.25C5.78036 11.25 5.57143 11.4609 5.57143 11.7188V12.6562C5.57143 12.9141 5.78036 13.125 6.03571 13.125H6.96429C7.21964 13.125 7.42857 12.9141 7.42857 12.6562V11.7188C7.42857 11.4609 7.21964 11.25 6.96429 11.25H6.03571ZM9.28571 11.7188V12.6562C9.28571 12.9141 9.49464 13.125 9.75 13.125H10.6786C10.9339 13.125 11.1429 12.9141 11.1429 12.6562V11.7188C11.1429 11.4609 10.9339 11.25 10.6786 11.25H9.75C9.49464 11.25 9.28571 11.4609 9.28571 11.7188Z" fill="#AB3130"/>
</svg>
