<svg width="20" height="17" viewBox="0 0 20 17" fill="none" xmlns="http://www.w3.org/2000/svg">
<path d="M11.6512 3.18637L5.78901 0.8127C5.2867 0.611376 4.73026 0.640601 4.25201 0.900374L2.87143 1.64397C2.53756 1.82581 2.5135 2.32912 2.82631 2.54668L7.24479 5.61525L4.28209 7.24857L2.53155 6.40756C2.26987 6.28092 1.96608 6.28741 1.71041 6.42704L0.741897 6.94983C0.46217 7.10245 0.386975 7.49536 0.591506 7.75188L2.79022 10.5217C2.97369 10.7523 3.24139 10.8854 3.52112 10.8854H7.66287C7.81326 10.8854 7.96065 10.8464 8.09299 10.775L16.3013 6.34586C17.6999 5.58927 18.7828 4.29041 19.3332 2.70904C19.6189 1.89076 19.0565 1.01402 18.2444 1.01402H16.5179C15.9103 1.01402 15.3087 1.16989 14.7673 1.46863L11.6512 3.18637ZM0.191467 15.0418C0.191467 15.6165 0.621584 16.0808 1.15397 16.0808H18.479C19.0113 16.0808 19.4415 15.6165 19.4415 15.0418C19.4415 14.467 19.0113 14.0027 18.479 14.0027H1.15397C0.621584 14.0027 0.191467 14.467 0.191467 15.0418Z" fill="white"/>
</svg>
