<svg width="19" height="17" viewBox="0 0 19 17" fill="none" xmlns="http://www.w3.org/2000/svg">
<path d="M3.69381 1.59375C3.69381 1.17106 3.86063 0.765685 4.15758 0.466799C4.45452 0.167912 4.85727 0 5.27721 0C5.69715 0 6.0999 0.167912 6.39684 0.466799C6.69379 0.765685 6.86061 1.17106 6.86061 1.59375C6.86061 2.01644 6.69379 2.42182 6.39684 2.7207C6.0999 3.01959 5.69715 3.1875 5.27721 3.1875C4.85727 3.1875 4.45452 3.01959 4.15758 2.7207C3.86063 2.42182 3.69381 2.01644 3.69381 1.59375ZM5.01331 11.6875V15.9375C5.01331 16.5252 4.54159 17 3.95771 17C3.37383 17 2.90211 16.5252 2.90211 15.9375V8.52988L1.95867 10.1104C1.65848 10.6117 1.00863 10.7744 0.51052 10.4723C0.0124091 10.1701 -0.149229 9.51602 0.150957 9.01465L2.07413 5.79395C2.64811 4.83437 3.67732 4.24668 4.789 4.24668H5.76872C6.8804 4.24668 7.90961 4.83437 8.48359 5.79395L9.96473 8.27422C9.43363 8.85859 9.02129 9.55254 8.75739 10.3162C8.69471 10.2564 8.64193 10.1867 8.59575 10.107L7.65231 8.52988V15.9375C7.65231 16.5252 7.18059 17 6.59671 17C6.01283 17 5.54111 16.5252 5.54111 15.9375V11.6875H5.01331ZM14.2498 7.4375C15.5096 7.4375 16.7179 7.94124 17.6087 8.8379C18.4995 9.73455 19 10.9507 19 12.2188C19 13.4868 18.4995 14.7029 17.6087 15.5996C16.7179 16.4963 15.5096 17 14.2498 17C12.99 17 11.7817 16.4963 10.8909 15.5996C10.0001 14.7029 9.49961 13.4868 9.49961 12.2188C9.49961 10.9507 10.0001 9.73455 10.8909 8.8379C11.7817 7.94124 12.99 7.4375 14.2498 7.4375ZM14.7776 10.0938C14.7776 9.80156 14.5401 9.5625 14.2498 9.5625C13.9595 9.5625 13.722 9.80156 13.722 10.0938V11.6875H12.1386C11.8483 11.6875 11.6108 11.9266 11.6108 12.2188C11.6108 12.5109 11.8483 12.75 12.1386 12.75H13.722V14.3438C13.722 14.6359 13.9595 14.875 14.2498 14.875C14.5401 14.875 14.7776 14.6359 14.7776 14.3438V12.75H16.361C16.6513 12.75 16.8888 12.5109 16.8888 12.2188C16.8888 11.9266 16.6513 11.6875 16.361 11.6875H14.7776V10.0938Z" fill="#AB3130"/>
</svg>
