<svg width="11" height="9" viewBox="0 0 11 9" fill="none" xmlns="http://www.w3.org/2000/svg">
<path d="M8.98691 3.375C9.72168 3.375 11 3.88477 11 4.5C11 5.13281 9.72168 5.625 8.98691 5.625H7.5625L5.0166 8.75039C4.88984 8.90684 4.675 9 4.44512 9H3.22695C2.99277 9 2.82734 8.81191 2.90039 8.6291L4.125 5.625H2.40625L1.47812 6.6375C1.41367 6.70781 1.31055 6.75 1.20312 6.75H0.300781C0.133204 6.75 0 6.63926 0 6.50391C0 6.48105 0.00429726 6.4582 0.0107422 6.43535L0.6875 4.5L0.0107422 2.56465C0.00214863 2.5418 0 2.51895 0 2.49609C0 2.35898 0.135351 2.25 0.300781 2.25H1.20312C1.31055 2.25 1.41367 2.29219 1.47812 2.3625L2.40625 3.375L4.125 3.375L2.90039 0.370898C2.82734 0.188086 2.99277 0 3.22695 0L4.44512 0C4.675 0 4.88984 0.0931641 5.0166 0.249609L7.5625 3.375H8.98691Z" fill="#1E1E1E"/>
</svg>
