<svg width="20" height="17" viewBox="0 0 20 17" fill="none" xmlns="http://www.w3.org/2000/svg">
<path d="M0.709097 5.82003L0.700073 2.8453C0.700073 2.5355 0.985815 2.3069 1.2866 2.37307L2.35738 2.61069C2.67621 2.67987 2.93488 2.90846 3.04917 3.21225L3.58757 4.64999L7.41652 5.78093L6.16828 1.41358C6.08105 1.10678 6.31265 0.799988 6.63148 0.799988H7.83761C8.18652 0.799988 8.50535 0.986472 8.67679 1.29026L11.9553 7.1194L15.1797 8.07288C15.6579 8.21425 16.1061 8.44886 16.4941 8.75866L17.5288 9.58882C18.2507 10.1663 18.0732 11.3123 17.2069 11.6401C15.9677 12.1094 14.6142 12.1846 13.3329 11.8507L4.36058 9.51663C4.02671 9.4294 3.72292 9.25495 3.47929 9.00831L0.985815 6.49678C0.808354 6.31632 0.706089 6.07268 0.706089 5.82003H0.709097ZM1.66257 14.275H18.9876C19.52 14.275 19.9501 14.7051 19.9501 15.2375C19.9501 15.7699 19.52 16.2 18.9876 16.2H1.66257C1.13019 16.2 0.700073 15.7699 0.700073 15.2375C0.700073 14.7051 1.13019 14.275 1.66257 14.275ZM4.55007 11.8687C4.55007 11.6135 4.65148 11.3687 4.83198 11.1881C5.01249 11.0076 5.2573 10.9062 5.51257 10.9062C5.76784 10.9062 6.01266 11.0076 6.19316 11.1881C6.37367 11.3687 6.47507 11.6135 6.47507 11.8687C6.47507 12.124 6.37367 12.3688 6.19316 12.5493C6.01266 12.7298 5.76784 12.8312 5.51257 12.8312C5.2573 12.8312 5.01249 12.7298 4.83198 12.5493C4.65148 12.3688 4.55007 12.124 4.55007 11.8687ZM8.40007 11.3875C8.65534 11.3875 8.90016 11.4889 9.08066 11.6694C9.26117 11.8499 9.36257 12.0947 9.36257 12.35C9.36257 12.6053 9.26117 12.8501 9.08066 13.0306C8.90016 13.2111 8.65534 13.3125 8.40007 13.3125C8.1448 13.3125 7.89999 13.2111 7.71948 13.0306C7.53898 12.8501 7.43757 12.6053 7.43757 12.35C7.43757 12.0947 7.53898 11.8499 7.71948 11.6694C7.89999 11.4889 8.1448 11.3875 8.40007 11.3875Z" fill="white"/>
</svg>
