<svg width="10" height="9" viewBox="0 0 10 9" fill="none" xmlns="http://www.w3.org/2000/svg">
<path d="M2.94258 0.188839C2.69847 -0.0622768 2.30202 -0.0622768 2.0579 0.188839L0.183088 2.11741C-0.0610292 2.36853 -0.0610292 2.77634 0.183088 3.02746C0.427204 3.27857 0.82365 3.27857 1.06777 3.02746L1.87628 2.19576L1.87628 8.35714C1.87628 8.71272 2.15555 9 2.50122 9C2.84689 9 3.12616 8.71272 3.12616 8.35714L3.12616 2.19576L3.93467 3.02746C4.17879 3.27857 4.57524 3.27857 4.81935 3.02746C5.06347 2.77634 5.06347 2.36853 4.81935 2.11741L2.94454 0.188839H2.94258ZM9.81691 6.8846C10.061 6.63348 10.061 6.22567 9.81691 5.97455C9.5728 5.72344 9.17635 5.72344 8.93223 5.97455L8.12567 6.80424L8.12567 0.642858C8.12567 0.287277 7.8464 0 7.50073 0C7.15506 0 6.87579 0.287277 6.87579 0.642858L6.87579 6.80424L6.06728 5.97254C5.82316 5.72143 5.42672 5.72143 5.1826 5.97254C4.93848 6.22366 4.93848 6.63147 5.1826 6.88259L7.05742 8.81116C7.30153 9.06228 7.69798 9.06228 7.9421 8.81116L9.81691 6.88259V6.8846Z" fill="white"/>
</svg>
